<mxfile host="drawio-plugin" modified="2023-02-07T10:21:05.374Z" agent="5.0 (Macintosh; Intel Mac OS X 10_15_7) AppleWebKit/537.36 (KHTML, like Gecko) Chrome/98.0.4758.102 Safari/537.36" etag="NbAyuANeIW1qc--Iw43U" version="20.5.3" type="embed"><diagram id="WbUByknVOwYqsg0Jc8eP" name="第 1 页"><mxGraphModel dx="1230" dy="567" grid="1" gridSize="10" guides="1" tooltips="1" connect="1" arrows="1" fold="1" page="0" pageScale="1" pageWidth="827" pageHeight="1169" math="0" shadow="0"><root><mxCell id="0"/><mxCell id="1" parent="0"/><mxCell id="7bV_Bt6voGbn4b_Syv1b-46" value="" style="group;rounded=1;sketch=1;curveFitting=1;jiggle=2;shadow=0;fontFamily=Comic Sans MS;fontSize=10;" parent="1" vertex="1" connectable="0"><mxGeometry x="240" y="600" width="400" height="240" as="geometry"/></mxCell><mxCell id="7bV_Bt6voGbn4b_Syv1b-47" value="" style="rounded=1;whiteSpace=wrap;html=1;sketch=1;curveFitting=1;jiggle=2;shadow=0;fontFamily=Comic Sans MS;fontSize=10;" parent="7bV_Bt6voGbn4b_Syv1b-46" vertex="1"><mxGeometry width="400" height="240" as="geometry"/></mxCell><mxCell id="7bV_Bt6voGbn4b_Syv1b-48" value="genius invokation simulator backend" style="text;html=1;strokeColor=none;fillColor=none;align=center;verticalAlign=middle;whiteSpace=wrap;rounded=1;sketch=1;curveFitting=1;jiggle=2;shadow=0;fontFamily=Comic Sans MS;fontSize=10;" parent="7bV_Bt6voGbn4b_Syv1b-46" vertex="1"><mxGeometry width="400" height="30" as="geometry"/></mxCell><mxCell id="7bV_Bt6voGbn4b_Syv1b-49" value="http/websocket" style="rounded=1;whiteSpace=wrap;html=1;sketch=1;curveFitting=1;jiggle=2;shadow=0;fontFamily=Comic Sans MS;fontSize=10;" parent="7bV_Bt6voGbn4b_Syv1b-46" vertex="1"><mxGeometry x="-40" y="100" width="80" height="40" as="geometry"/></mxCell><mxCell id="7bV_Bt6voGbn4b_Syv1b-56" value="3. call constructors" style="edgeStyle=orthogonalEdgeStyle;curved=1;rounded=0;sketch=1;hachureGap=4;jiggle=2;curveFitting=1;orthogonalLoop=1;jettySize=auto;html=1;exitX=1;exitY=0.5;exitDx=0;exitDy=0;entryX=0.5;entryY=0;entryDx=0;entryDy=0;shadow=0;fontFamily=Comic Sans MS;fontSize=10;" parent="7bV_Bt6voGbn4b_Syv1b-46" source="7bV_Bt6voGbn4b_Syv1b-53" target="7bV_Bt6voGbn4b_Syv1b-55" edge="1"><mxGeometry x="-0.0588" y="-10" relative="1" as="geometry"><mxPoint as="offset"/></mxGeometry></mxCell><mxCell id="7bV_Bt6voGbn4b_Syv1b-53" value="persistence" style="rounded=1;whiteSpace=wrap;html=1;sketch=1;curveFitting=1;jiggle=2;shadow=0;fontFamily=Comic Sans MS;fontSize=10;" parent="7bV_Bt6voGbn4b_Syv1b-46" vertex="1"><mxGeometry x="120" y="40" width="80" height="40" as="geometry"/></mxCell><mxCell id="7bV_Bt6voGbn4b_Syv1b-54" value="2. search entities" style="edgeStyle=orthogonalEdgeStyle;curved=1;rounded=0;sketch=1;hachureGap=4;jiggle=2;curveFitting=1;orthogonalLoop=1;jettySize=auto;html=1;exitX=0.75;exitY=0;exitDx=0;exitDy=0;entryX=0;entryY=0.5;entryDx=0;entryDy=0;shadow=0;fontFamily=Comic Sans MS;fontSize=10;" parent="7bV_Bt6voGbn4b_Syv1b-46" source="7bV_Bt6voGbn4b_Syv1b-49" target="7bV_Bt6voGbn4b_Syv1b-53" edge="1"><mxGeometry x="0.1429" y="-10" relative="1" as="geometry"><mxPoint as="offset"/></mxGeometry></mxCell><mxCell id="7bV_Bt6voGbn4b_Syv1b-58" value="4. attach battle framework" style="edgeStyle=orthogonalEdgeStyle;curved=1;rounded=0;sketch=1;hachureGap=4;jiggle=2;curveFitting=1;orthogonalLoop=1;jettySize=auto;html=1;exitX=0.5;exitY=1;exitDx=0;exitDy=0;entryX=1;entryY=0.5;entryDx=0;entryDy=0;shadow=0;fontFamily=Comic Sans MS;fontSize=10;" parent="7bV_Bt6voGbn4b_Syv1b-46" source="7bV_Bt6voGbn4b_Syv1b-55" target="7bV_Bt6voGbn4b_Syv1b-57" edge="1"><mxGeometry x="-0.0667" y="-10" relative="1" as="geometry"><mxPoint as="offset"/></mxGeometry></mxCell><mxCell id="7bV_Bt6voGbn4b_Syv1b-55" value="entities" style="rounded=1;whiteSpace=wrap;html=1;sketch=1;curveFitting=1;jiggle=2;shadow=0;fontFamily=Comic Sans MS;fontSize=10;" parent="7bV_Bt6voGbn4b_Syv1b-46" vertex="1"><mxGeometry x="280" y="100" width="80" height="40" as="geometry"/></mxCell><mxCell id="7bV_Bt6voGbn4b_Syv1b-60" value="5. generate message" style="edgeStyle=orthogonalEdgeStyle;curved=1;rounded=0;sketch=1;hachureGap=4;jiggle=2;curveFitting=1;orthogonalLoop=1;jettySize=auto;html=1;exitX=0;exitY=0.5;exitDx=0;exitDy=0;entryX=0.75;entryY=1;entryDx=0;entryDy=0;shadow=0;fontFamily=Comic Sans MS;fontSize=10;" parent="7bV_Bt6voGbn4b_Syv1b-46" source="7bV_Bt6voGbn4b_Syv1b-57" target="7bV_Bt6voGbn4b_Syv1b-49" edge="1"><mxGeometry x="-0.1429" y="-10" relative="1" as="geometry"><mxPoint as="offset"/></mxGeometry></mxCell><mxCell id="7bV_Bt6voGbn4b_Syv1b-57" value="core" style="rounded=1;whiteSpace=wrap;html=1;sketch=1;curveFitting=1;jiggle=2;shadow=0;fontFamily=Comic Sans MS;fontSize=10;" parent="7bV_Bt6voGbn4b_Syv1b-46" vertex="1"><mxGeometry x="120" y="160" width="80" height="40" as="geometry"/></mxCell><mxCell id="7bV_Bt6voGbn4b_Syv1b-35" value="" style="group;rounded=1;sketch=1;curveFitting=1;jiggle=2;shadow=0;fontFamily=Comic Sans MS;fontSize=10;" parent="1" vertex="1" connectable="0"><mxGeometry x="200" y="280" width="240" height="120" as="geometry"/></mxCell><mxCell id="7bV_Bt6voGbn4b_Syv1b-36" value="" style="rounded=1;whiteSpace=wrap;html=1;sketch=1;curveFitting=1;jiggle=2;shadow=0;fontFamily=Comic Sans MS;fontSize=10;" parent="7bV_Bt6voGbn4b_Syv1b-35" vertex="1"><mxGeometry width="240" height="120" as="geometry"/></mxCell><mxCell id="7bV_Bt6voGbn4b_Syv1b-37" value="genius invokation simulator backend" style="text;html=1;strokeColor=none;fillColor=none;align=center;verticalAlign=middle;whiteSpace=wrap;rounded=1;sketch=1;curveFitting=1;jiggle=2;shadow=0;fontFamily=Comic Sans MS;fontSize=10;" parent="7bV_Bt6voGbn4b_Syv1b-35" vertex="1"><mxGeometry width="240" height="15" as="geometry"/></mxCell><mxCell id="7bV_Bt6voGbn4b_Syv1b-38" value="util" style="rounded=1;whiteSpace=wrap;html=1;sketch=1;curveFitting=1;jiggle=2;shadow=0;fontFamily=Comic Sans MS;fontSize=10;" parent="7bV_Bt6voGbn4b_Syv1b-35" vertex="1"><mxGeometry x="80" y="40" width="80" height="40" as="geometry"/></mxCell><mxCell id="7bV_Bt6voGbn4b_Syv1b-8" value="" style="group;rounded=1;sketch=1;curveFitting=1;jiggle=2;shadow=0;fontFamily=Comic Sans MS;fontSize=10;" parent="1" vertex="1" connectable="0"><mxGeometry x="240" y="440" width="400" height="120" as="geometry"/></mxCell><mxCell id="7bV_Bt6voGbn4b_Syv1b-9" value="" style="rounded=1;whiteSpace=wrap;html=1;sketch=1;curveFitting=1;jiggle=2;shadow=0;fontFamily=Comic Sans MS;fontSize=10;" parent="7bV_Bt6voGbn4b_Syv1b-8" vertex="1"><mxGeometry width="400" height="120" as="geometry"/></mxCell><mxCell id="7bV_Bt6voGbn4b_Syv1b-10" value="genius invokation simulator backend" style="text;html=1;strokeColor=none;fillColor=none;align=center;verticalAlign=middle;whiteSpace=wrap;rounded=1;sketch=1;curveFitting=1;jiggle=2;shadow=0;fontFamily=Comic Sans MS;fontSize=10;" parent="7bV_Bt6voGbn4b_Syv1b-8" vertex="1"><mxGeometry width="400" height="15" as="geometry"/></mxCell><mxCell id="7bV_Bt6voGbn4b_Syv1b-4" value="mod.Adapter" style="rounded=1;whiteSpace=wrap;html=1;sketch=1;curveFitting=1;jiggle=2;shadow=0;fontFamily=Comic Sans MS;fontSize=10;" parent="7bV_Bt6voGbn4b_Syv1b-8" vertex="1"><mxGeometry x="40" y="40" width="80" height="40" as="geometry"/></mxCell><mxCell id="7bV_Bt6voGbn4b_Syv1b-14" value="persistence" style="rounded=1;whiteSpace=wrap;html=1;sketch=1;curveFitting=1;jiggle=2;shadow=0;fontFamily=Comic Sans MS;fontSize=10;" parent="7bV_Bt6voGbn4b_Syv1b-8" vertex="1"><mxGeometry x="280" y="40" width="80" height="40" as="geometry"/></mxCell><mxCell id="7bV_Bt6voGbn4b_Syv1b-15" value="2. generate constructors" style="edgeStyle=orthogonalEdgeStyle;rounded=0;sketch=1;hachureGap=4;jiggle=2;curveFitting=1;orthogonalLoop=1;jettySize=auto;html=1;exitX=1;exitY=0.5;exitDx=0;exitDy=0;entryX=0;entryY=0.5;entryDx=0;entryDy=0;shadow=0;fontFamily=Comic Sans MS;fontSize=10;" parent="7bV_Bt6voGbn4b_Syv1b-8" source="7bV_Bt6voGbn4b_Syv1b-4" target="7bV_Bt6voGbn4b_Syv1b-14" edge="1"><mxGeometry relative="1" as="geometry"/></mxCell><mxCell id="7bV_Bt6voGbn4b_Syv1b-13" value="1. register entities" style="edgeStyle=orthogonalEdgeStyle;rounded=1;orthogonalLoop=1;jettySize=auto;html=1;exitX=1;exitY=0.5;exitDx=0;exitDy=0;entryX=0;entryY=0.5;entryDx=0;entryDy=0;sketch=1;curveFitting=1;jiggle=2;shadow=0;fontFamily=Comic Sans MS;fontSize=10;" parent="1" source="7bV_Bt6voGbn4b_Syv1b-12" target="7bV_Bt6voGbn4b_Syv1b-4" edge="1"><mxGeometry relative="1" as="geometry"/></mxCell><mxCell id="7bV_Bt6voGbn4b_Syv1b-12" value="mod files" style="rounded=1;whiteSpace=wrap;html=1;sketch=1;curveFitting=1;jiggle=2;shadow=0;fontFamily=Comic Sans MS;fontSize=10;" parent="1" vertex="1"><mxGeometry x="40" y="480" width="80" height="40" as="geometry"/></mxCell><mxCell id="7bV_Bt6voGbn4b_Syv1b-18" value="" style="group;shadow=0;sketch=1;fontFamily=Comic Sans MS;" parent="1" vertex="1" connectable="0"><mxGeometry x="720" y="440" width="180" height="120" as="geometry"/></mxCell><mxCell id="7bV_Bt6voGbn4b_Syv1b-16" value="" style="strokeWidth=2;html=1;shape=mxgraph.flowchart.annotation_1;align=left;pointerEvents=1;shadow=0;sketch=1;hachureGap=4;jiggle=2;curveFitting=1;fontFamily=Comic Sans MS;fontSize=10;rotation=-180;" parent="7bV_Bt6voGbn4b_Syv1b-18" vertex="1"><mxGeometry width="50" height="120" as="geometry"/></mxCell><mxCell id="7bV_Bt6voGbn4b_Syv1b-17" value="Game Server Start" style="text;html=1;strokeColor=none;fillColor=none;align=center;verticalAlign=middle;whiteSpace=wrap;rounded=0;shadow=0;sketch=1;hachureGap=4;jiggle=2;curveFitting=1;fontFamily=Comic Sans MS;fontSize=10;" parent="7bV_Bt6voGbn4b_Syv1b-18" vertex="1"><mxGeometry x="60" y="45" width="120" height="30" as="geometry"/></mxCell><mxCell id="7bV_Bt6voGbn4b_Syv1b-21" value="" style="group;rounded=1;sketch=1;curveFitting=1;jiggle=2;shadow=0;fontFamily=Comic Sans MS;fontSize=10;" parent="1" vertex="1" connectable="0"><mxGeometry x="200" y="120" width="240" height="120" as="geometry"/></mxCell><mxCell id="7bV_Bt6voGbn4b_Syv1b-22" value="" style="rounded=1;whiteSpace=wrap;html=1;sketch=1;curveFitting=1;jiggle=2;shadow=0;fontFamily=Comic Sans MS;fontSize=10;" parent="7bV_Bt6voGbn4b_Syv1b-21" vertex="1"><mxGeometry width="240" height="120" as="geometry"/></mxCell><mxCell id="7bV_Bt6voGbn4b_Syv1b-23" value="genius invokation simulator backend" style="text;html=1;strokeColor=none;fillColor=none;align=center;verticalAlign=middle;whiteSpace=wrap;rounded=1;sketch=1;curveFitting=1;jiggle=2;shadow=0;fontFamily=Comic Sans MS;fontSize=10;" parent="7bV_Bt6voGbn4b_Syv1b-21" vertex="1"><mxGeometry width="240" height="15" as="geometry"/></mxCell><mxCell id="7bV_Bt6voGbn4b_Syv1b-24" value="util" style="rounded=1;whiteSpace=wrap;html=1;sketch=1;curveFitting=1;jiggle=2;shadow=0;fontFamily=Comic Sans MS;fontSize=10;" parent="7bV_Bt6voGbn4b_Syv1b-21" vertex="1"><mxGeometry x="80" y="40" width="80" height="40" as="geometry"/></mxCell><mxCell id="7bV_Bt6voGbn4b_Syv1b-34" value="3. modify" style="edgeStyle=orthogonalEdgeStyle;rounded=0;sketch=1;hachureGap=4;jiggle=2;curveFitting=1;orthogonalLoop=1;jettySize=auto;html=1;entryX=1;entryY=0.5;entryDx=0;entryDy=0;shadow=0;fontFamily=Comic Sans MS;fontSize=10;curved=1;exitX=1;exitY=0.5;exitDx=0;exitDy=0;" parent="1" source="7bV_Bt6voGbn4b_Syv1b-25" target="7bV_Bt6voGbn4b_Syv1b-33" edge="1"><mxGeometry relative="1" as="geometry"><mxPoint x="630" y="190" as="sourcePoint"/><Array as="points"><mxPoint x="640" y="180"/><mxPoint x="640" y="340"/></Array></mxGeometry></mxCell><mxCell id="7bV_Bt6voGbn4b_Syv1b-25" value="template files" style="rounded=1;whiteSpace=wrap;html=1;sketch=1;curveFitting=1;jiggle=2;shadow=0;fontFamily=Comic Sans MS;fontSize=10;" parent="1" vertex="1"><mxGeometry x="520" y="160" width="80" height="40" as="geometry"/></mxCell><mxCell id="7bV_Bt6voGbn4b_Syv1b-28" value="1. get dependence" style="edgeStyle=orthogonalEdgeStyle;rounded=0;sketch=1;hachureGap=4;jiggle=2;curveFitting=1;orthogonalLoop=1;jettySize=auto;html=1;exitX=1;exitY=0.5;exitDx=0;exitDy=0;entryX=0;entryY=0.5;entryDx=0;entryDy=0;shadow=0;fontFamily=Comic Sans MS;fontSize=10;" parent="1" source="7bV_Bt6voGbn4b_Syv1b-27" target="7bV_Bt6voGbn4b_Syv1b-24" edge="1"><mxGeometry relative="1" as="geometry"/></mxCell><mxCell id="7bV_Bt6voGbn4b_Syv1b-27" value="good idea" style="ellipse;whiteSpace=wrap;html=1;shadow=0;sketch=1;hachureGap=4;jiggle=2;curveFitting=1;fontFamily=Comic Sans MS;fontSize=10;" parent="1" vertex="1"><mxGeometry x="40" y="160" width="80" height="40" as="geometry"/></mxCell><mxCell id="7bV_Bt6voGbn4b_Syv1b-29" value="2. create mod files" style="edgeStyle=orthogonalEdgeStyle;rounded=0;sketch=1;hachureGap=4;jiggle=2;curveFitting=1;orthogonalLoop=1;jettySize=auto;html=1;exitX=1;exitY=0.5;exitDx=0;exitDy=0;entryX=0;entryY=0.5;entryDx=0;entryDy=0;shadow=0;fontFamily=Comic Sans MS;fontSize=10;" parent="1" source="7bV_Bt6voGbn4b_Syv1b-24" target="7bV_Bt6voGbn4b_Syv1b-25" edge="1"><mxGeometry relative="1" as="geometry"/></mxCell><mxCell id="7bV_Bt6voGbn4b_Syv1b-39" value="4. publish mod" style="edgeStyle=orthogonalEdgeStyle;curved=1;rounded=0;sketch=1;hachureGap=4;jiggle=2;curveFitting=1;orthogonalLoop=1;jettySize=auto;html=1;exitX=0;exitY=0.5;exitDx=0;exitDy=0;entryX=1;entryY=0.5;entryDx=0;entryDy=0;shadow=0;fontFamily=Comic Sans MS;fontSize=10;" parent="1" source="7bV_Bt6voGbn4b_Syv1b-33" target="7bV_Bt6voGbn4b_Syv1b-38" edge="1"><mxGeometry relative="1" as="geometry"/></mxCell><mxCell id="7bV_Bt6voGbn4b_Syv1b-33" value="modified files" style="rounded=1;whiteSpace=wrap;html=1;sketch=1;curveFitting=1;jiggle=2;shadow=0;fontFamily=Comic Sans MS;fontSize=10;" parent="1" vertex="1"><mxGeometry x="520" y="320" width="80" height="40" as="geometry"/></mxCell><mxCell id="7bV_Bt6voGbn4b_Syv1b-41" value="" style="group;shadow=0;sketch=1;fontFamily=Comic Sans MS;" parent="1" vertex="1" connectable="0"><mxGeometry x="720" y="120" width="180" height="280" as="geometry"/></mxCell><mxCell id="7bV_Bt6voGbn4b_Syv1b-31" value="" style="strokeWidth=2;html=1;shape=mxgraph.flowchart.annotation_1;align=left;pointerEvents=1;shadow=0;sketch=1;hachureGap=4;jiggle=2;curveFitting=1;fontFamily=Comic Sans MS;fontSize=10;rotation=-180;" parent="7bV_Bt6voGbn4b_Syv1b-41" vertex="1"><mxGeometry width="50" height="280" as="geometry"/></mxCell><mxCell id="7bV_Bt6voGbn4b_Syv1b-32" value="Design&amp;amp;Coding Mod" style="text;html=1;strokeColor=none;fillColor=none;align=center;verticalAlign=middle;whiteSpace=wrap;rounded=0;shadow=0;sketch=1;hachureGap=4;jiggle=2;curveFitting=1;fontFamily=Comic Sans MS;fontSize=10;" parent="7bV_Bt6voGbn4b_Syv1b-41" vertex="1"><mxGeometry x="60" y="125" width="120" height="30" as="geometry"/></mxCell><mxCell id="7bV_Bt6voGbn4b_Syv1b-44" style="edgeStyle=orthogonalEdgeStyle;curved=1;rounded=0;sketch=1;hachureGap=4;jiggle=2;curveFitting=1;orthogonalLoop=1;jettySize=auto;html=1;exitX=0.5;exitY=1;exitDx=0;exitDy=0;entryX=0.5;entryY=0;entryDx=0;entryDy=0;shadow=0;fontFamily=Comic Sans MS;fontSize=10;dashed=1;endArrow=none;endFill=0;" parent="1" source="7bV_Bt6voGbn4b_Syv1b-42" target="7bV_Bt6voGbn4b_Syv1b-12" edge="1"><mxGeometry relative="1" as="geometry"/></mxCell><mxCell id="7bV_Bt6voGbn4b_Syv1b-42" value="mod files" style="rounded=1;whiteSpace=wrap;html=1;sketch=1;curveFitting=1;jiggle=2;shadow=0;fontFamily=Comic Sans MS;fontSize=10;" parent="1" vertex="1"><mxGeometry x="40" y="320" width="80" height="40" as="geometry"/></mxCell><mxCell id="7bV_Bt6voGbn4b_Syv1b-43" value="5. inject mod context" style="edgeStyle=orthogonalEdgeStyle;curved=1;rounded=0;sketch=1;hachureGap=4;jiggle=2;curveFitting=1;orthogonalLoop=1;jettySize=auto;html=1;exitX=0;exitY=0.5;exitDx=0;exitDy=0;entryX=1;entryY=0.5;entryDx=0;entryDy=0;shadow=0;fontFamily=Comic Sans MS;fontSize=10;" parent="1" source="7bV_Bt6voGbn4b_Syv1b-38" target="7bV_Bt6voGbn4b_Syv1b-42" edge="1"><mxGeometry relative="1" as="geometry"/></mxCell><mxCell id="7bV_Bt6voGbn4b_Syv1b-52" value="1. request new game" style="edgeStyle=orthogonalEdgeStyle;curved=1;rounded=0;sketch=1;hachureGap=4;jiggle=2;curveFitting=1;orthogonalLoop=1;jettySize=auto;html=1;exitX=0.75;exitY=0;exitDx=0;exitDy=0;entryX=0.25;entryY=0;entryDx=0;entryDy=0;shadow=0;fontFamily=Comic Sans MS;fontSize=10;" parent="1" source="7bV_Bt6voGbn4b_Syv1b-45" target="7bV_Bt6voGbn4b_Syv1b-49" edge="1"><mxGeometry relative="1" as="geometry"><mxPoint as="offset"/></mxGeometry></mxCell><mxCell id="25" style="edgeStyle=orthogonalEdgeStyle;curved=1;rounded=0;sketch=1;hachureGap=4;jiggle=2;orthogonalLoop=1;jettySize=auto;html=1;exitX=0.5;exitY=1;exitDx=0;exitDy=0;entryX=0.5;entryY=0;entryDx=0;entryDy=0;fontFamily=Comic Sans MS;fontSize=10;endArrow=none;endFill=0;dashed=1;" edge="1" parent="1" source="7bV_Bt6voGbn4b_Syv1b-45" target="3"><mxGeometry relative="1" as="geometry"><Array as="points"><mxPoint x="80" y="860"/><mxPoint x="80" y="860"/></Array></mxGeometry></mxCell><mxCell id="7bV_Bt6voGbn4b_Syv1b-45" value="client/frontend" style="rounded=1;whiteSpace=wrap;html=1;sketch=1;curveFitting=1;jiggle=2;shadow=0;fontFamily=Comic Sans MS;fontSize=10;" parent="1" vertex="1"><mxGeometry x="40" y="700" width="80" height="40" as="geometry"/></mxCell><mxCell id="7bV_Bt6voGbn4b_Syv1b-59" value="6. response" style="edgeStyle=orthogonalEdgeStyle;curved=1;rounded=0;sketch=1;hachureGap=4;jiggle=2;curveFitting=1;orthogonalLoop=1;jettySize=auto;html=1;exitX=0.25;exitY=1;exitDx=0;exitDy=0;entryX=0.75;entryY=1;entryDx=0;entryDy=0;shadow=0;fontFamily=Comic Sans MS;fontSize=10;" parent="1" source="7bV_Bt6voGbn4b_Syv1b-49" target="7bV_Bt6voGbn4b_Syv1b-45" edge="1"><mxGeometry relative="1" as="geometry"><mxPoint as="offset"/></mxGeometry></mxCell><mxCell id="7bV_Bt6voGbn4b_Syv1b-61" value="" style="group;shadow=0;sketch=1;fontFamily=Comic Sans MS;" parent="1" vertex="1" connectable="0"><mxGeometry x="720" y="600" width="180" height="240" as="geometry"/></mxCell><mxCell id="7bV_Bt6voGbn4b_Syv1b-62" value="" style="strokeWidth=2;html=1;shape=mxgraph.flowchart.annotation_1;align=left;pointerEvents=1;shadow=0;sketch=1;hachureGap=4;jiggle=2;curveFitting=1;fontFamily=Comic Sans MS;fontSize=10;rotation=-180;" parent="7bV_Bt6voGbn4b_Syv1b-61" vertex="1"><mxGeometry width="50" height="240" as="geometry"/></mxCell><mxCell id="7bV_Bt6voGbn4b_Syv1b-63" value="Game Initialization" style="text;html=1;strokeColor=none;fillColor=none;align=center;verticalAlign=middle;whiteSpace=wrap;rounded=0;shadow=0;sketch=1;hachureGap=4;jiggle=2;curveFitting=1;fontFamily=Comic Sans MS;fontSize=10;" parent="7bV_Bt6voGbn4b_Syv1b-61" vertex="1"><mxGeometry x="60" y="90" width="120" height="60" as="geometry"/></mxCell><mxCell id="15" value="&lt;font style=&quot;font-size: 10px;&quot;&gt;1. actions&lt;/font&gt;" style="edgeStyle=orthogonalEdgeStyle;rounded=0;orthogonalLoop=1;jettySize=auto;html=1;exitX=0.75;exitY=0;exitDx=0;exitDy=0;entryX=0.25;entryY=0;entryDx=0;entryDy=0;shadow=0;curved=1;sketch=1;fontFamily=Comic Sans MS;" edge="1" parent="1" source="3" target="7"><mxGeometry relative="1" as="geometry"/></mxCell><mxCell id="3" value="client/frontend" style="rounded=1;whiteSpace=wrap;html=1;sketch=1;curveFitting=1;jiggle=2;shadow=0;fontFamily=Comic Sans MS;fontSize=10;" vertex="1" parent="1"><mxGeometry x="40" y="980" width="80" height="40" as="geometry"/></mxCell><mxCell id="4" value="" style="group;rounded=1;sketch=1;curveFitting=1;jiggle=2;shadow=0;fontFamily=Comic Sans MS;fontSize=10;" vertex="1" connectable="0" parent="1"><mxGeometry x="240" y="880" width="400" height="240" as="geometry"/></mxCell><mxCell id="5" value="" style="rounded=1;whiteSpace=wrap;html=1;sketch=1;curveFitting=1;jiggle=2;shadow=0;fontFamily=Comic Sans MS;fontSize=10;" vertex="1" parent="4"><mxGeometry width="400" height="240" as="geometry"/></mxCell><mxCell id="6" value="genius invokation simulator backend" style="text;html=1;strokeColor=none;fillColor=none;align=center;verticalAlign=middle;whiteSpace=wrap;rounded=1;sketch=1;curveFitting=1;jiggle=2;shadow=0;fontFamily=Comic Sans MS;fontSize=10;" vertex="1" parent="4"><mxGeometry width="400" height="30" as="geometry"/></mxCell><mxCell id="19" value="2. analyze actions" style="edgeStyle=orthogonalEdgeStyle;curved=1;rounded=0;sketch=1;hachureGap=4;jiggle=2;orthogonalLoop=1;jettySize=auto;html=1;exitX=0.75;exitY=0;exitDx=0;exitDy=0;entryX=0.25;entryY=0;entryDx=0;entryDy=0;fontFamily=Comic Sans MS;fontSize=10;" edge="1" parent="4" source="7" target="18"><mxGeometry relative="1" as="geometry"/></mxCell><mxCell id="7" value="http/websocket" style="rounded=1;whiteSpace=wrap;html=1;sketch=1;curveFitting=1;jiggle=2;shadow=0;fontFamily=Comic Sans MS;fontSize=10;" vertex="1" parent="4"><mxGeometry x="-40" y="100" width="80" height="40" as="geometry"/></mxCell><mxCell id="21" value="4. generate message" style="edgeStyle=orthogonalEdgeStyle;curved=1;rounded=0;sketch=1;hachureGap=4;jiggle=2;orthogonalLoop=1;jettySize=auto;html=1;exitX=0.25;exitY=1;exitDx=0;exitDy=0;entryX=0.75;entryY=1;entryDx=0;entryDy=0;fontFamily=Comic Sans MS;fontSize=10;" edge="1" parent="4" source="18" target="7"><mxGeometry relative="1" as="geometry"/></mxCell><mxCell id="18" value="core" style="rounded=1;whiteSpace=wrap;html=1;sketch=1;curveFitting=1;jiggle=2;shadow=0;fontFamily=Comic Sans MS;fontSize=10;" vertex="1" parent="4"><mxGeometry x="160" y="100" width="80" height="40" as="geometry"/></mxCell><mxCell id="20" value="3. execute actions" style="edgeStyle=orthogonalEdgeStyle;curved=1;rounded=0;sketch=1;hachureGap=4;jiggle=2;orthogonalLoop=1;jettySize=auto;html=1;exitX=0.75;exitY=0;exitDx=0;exitDy=0;entryX=0.75;entryY=1;entryDx=0;entryDy=0;fontFamily=Comic Sans MS;fontSize=10;" edge="1" parent="4" source="18" target="18"><mxGeometry x="-0.1667" y="10" relative="1" as="geometry"><Array as="points"><mxPoint x="220" y="80"/><mxPoint x="280" y="80"/><mxPoint x="280" y="160"/><mxPoint x="220" y="160"/></Array><mxPoint as="offset"/></mxGeometry></mxCell><mxCell id="17" value="&lt;font style=&quot;font-size: 10px;&quot;&gt;5. response&lt;/font&gt;" style="edgeStyle=orthogonalEdgeStyle;rounded=0;sketch=1;hachureGap=4;jiggle=2;orthogonalLoop=1;jettySize=auto;html=1;exitX=0.25;exitY=1;exitDx=0;exitDy=0;entryX=0.75;entryY=1;entryDx=0;entryDy=0;fontFamily=Comic Sans MS;fontSize=10;curved=1;" edge="1" parent="1" source="7" target="3"><mxGeometry relative="1" as="geometry"/></mxCell><mxCell id="22" value="" style="group;shadow=0;sketch=1;fontFamily=Comic Sans MS;" vertex="1" connectable="0" parent="1"><mxGeometry x="720" y="880" width="180" height="240" as="geometry"/></mxCell><mxCell id="23" value="" style="strokeWidth=2;html=1;shape=mxgraph.flowchart.annotation_1;align=left;pointerEvents=1;shadow=0;sketch=1;hachureGap=4;jiggle=2;curveFitting=1;fontFamily=Comic Sans MS;fontSize=10;rotation=-180;" vertex="1" parent="22"><mxGeometry width="50" height="240" as="geometry"/></mxCell><mxCell id="24" value="Game Playing" style="text;html=1;strokeColor=none;fillColor=none;align=center;verticalAlign=middle;whiteSpace=wrap;rounded=0;shadow=0;sketch=1;hachureGap=4;jiggle=2;curveFitting=1;fontFamily=Comic Sans MS;fontSize=10;" vertex="1" parent="22"><mxGeometry x="60" y="90" width="120" height="60" as="geometry"/></mxCell></root></mxGraphModel></diagram></mxfile>